<svg fill="#F25081" xmlns="http://www.w3.org/2000/svg" width="64" height="64"><path d="M10.957 2.014C8.901 2.058 7 3.68 7 5.926v52.148c0 2.995 3.38 4.88 6 3.395l14.836-8.408a1 1 0 0 0 .219-.125l30.949-17.541c2.605-1.477 2.605-5.313 0-6.79l-3.547-2.01C53.213 16.539 44.226 9 33.5 9c-2.47 0-4.846.407-7.07 1.145L13 2.53a3.951 3.951 0 0 0-2.043-.517zm.004 1.974c.347 0 .708.088 1.053.283L24.04 11.09C16.347 14.668 11 22.467 11 31.5c0 9.424 5.811 17.498 14.05 20.84l-13.036 7.389C10.635 60.509 9 59.585 9 58.074V5.926c0-1.134.92-1.937 1.96-1.938zM33.5 11C44.83 11 54 20.17 54 31.5c0 1.644-.203 3.233-.568 4.754l-6.366 3.607c.368-.597.713-1.215 1.006-1.873 3.573-8.026-.057-17.485-8.084-21.058a15.985 15.985 0 0 0-2.468-.866 1 1 0 0 0-.297-.037 1 1 0 0 0-.21 1.971c.73.19 1.452.442 2.16.758 7.036 3.132 10.203 11.382 7.071 18.418-3.131 7.035-11.382 10.203-18.418 7.07a13.899 13.899 0 0 1-7.42-7.951 1 1 0 0 0-1.879.687 15.916 15.916 0 0 0 8.485 9.09 15.813 15.813 0 0 0 6.705 1.358l-6.373 3.611C19.034 48.428 13 40.681 13 31.5 13 20.17 22.17 11 33.5 11zm-.23 3.541a1 1 0 0 0-.971 1.027l.027 2a1 1 0 0 0 2-.029l-.027-1.998a1 1 0 0 0-1.03-1zm-5.124.92a1 1 0 0 0-.884 1.346l.664 1.886a1 1 0 1 0 1.887-.666l-.667-1.886a1 1 0 0 0-.9-.68 1 1 0 0 0-.1 0zm-4.466 2.49a1 1 0 0 0-.801 1.627l1.232 1.576a1 1 0 1 0 1.576-1.232l-1.232-1.576a1 1 0 0 0-.775-.395zm-3.537 3.813a1 1 0 0 0-.528 1.845l1.674 1.094a1 1 0 1 0 1.094-1.674l-1.674-1.093a1 1 0 0 0-.566-.172zM34 25v7.35a3.463 3.463 0 0 0-1.5-.35 3.5 3.5 0 1 0 0 7c1.889 0 3.418-1.5 3.486-3.373l.014-.002V28h3v-3h-5zm-15.984 1.5a1 1 0 0 0-.205 1.97l1.935.503a1 1 0 1 0 .502-1.936l-1.936-.502a1 1 0 0 0-.296-.035zm37.857 2.63 2.145 1.216c1.369.775 1.369 2.533 0 3.308l-2.293 1.301C55.9 33.83 56 32.678 56 31.5c0-.8-.045-1.59-.127-2.37zm-36.285 2.382a1 1 0 0 0-.07.004l-1.995.148a1 1 0 1 0 .149 1.994l1.996-.148a1 1 0 0 0-.08-1.998z"/></svg>