<svg aria-hidden="true" style="width:0;height:0;position:absolute;overflow:hidden" xmlns="http://www.w3.org/2000/svg"><defs><symbol id="icon-close" viewBox="0 0 32 32"><path d="M1.646 32a1.646 1.646 0 0 1-1.163-2.811L29.19.482a1.646 1.646 0 1 1 2.328 2.329L2.811 31.517A1.65 1.65 0 0 1 1.646 32z"/><path d="M30.355 32c-.421 0-.843-.16-1.163-.483L.483 2.811A1.647 1.647 0 0 1 2.812.482l28.707 28.707A1.646 1.646 0 0 1 30.356 32z"/></symbol><symbol id="icon-triangel" viewBox="0 0 52 32"><path fill="#939393" style="fill:var(--color2,#939393)" d="M26 32 .019 2h51.962L26 32z"/></symbol><symbol id="icon-location" viewBox="0 0 22 32"><path fill="#fff" style="fill:var(--color3,#fff)" d="M11.2 0C5.024 0 0 4.99 0 11.123 0 18.832 11.211 32 11.211 32S22.4 18.453 22.4 11.123C22.4 4.99 17.376 0 11.2 0zm3.379 14.38c-.932.925-2.155 1.388-3.379 1.388s-2.448-.463-3.379-1.388a4.729 4.729 0 0 1 0-6.712c.902-.896 2.103-1.39 3.379-1.39s2.477.494 3.379 1.39a4.729 4.729 0 0 1 0 6.712z"/></symbol><symbol id="icon-search" viewBox="0 0 32 32"><path d="M4.024 4.024C6.619 1.429 10.069 0 13.739 0s7.12 1.429 9.715 4.024a13.649 13.649 0 0 1 4.024 9.715 13.64 13.64 0 0 1-3.383 9.029l7.63 7.63a.94.94 0 0 1-1.327 1.327l-7.63-7.63a13.635 13.635 0 0 1-9.029 3.383c-3.67 0-7.12-1.429-9.715-4.024S0 17.409 0 13.739s1.429-7.12 4.024-9.715zm1.327 18.103c4.625 4.625 12.15 4.625 16.775 0s4.625-12.15 0-16.775c-2.313-2.313-5.35-3.469-8.388-3.469S7.662 3.04 5.35 5.352c-4.625 4.625-4.625 12.15 0 16.775z"/></symbol><symbol id="icon-ticket" viewBox="0 0 44 32"><path d="M4.91 1.27H0v29.46h4.91V1.27zM17.26 1.27h-4.91v29.46h4.91V1.27zM24.699 1.27h-4.91v29.46h4.91V1.27zM44.19 1.27h-7.291v29.46h7.291V1.27zM9.82 1.27H7.439v29.46H9.82V1.27zM29.46 1.27h-2.381v29.46h2.381V1.27zM34.37 1.27h-2.381v29.46h2.381V1.27z"/></symbol><symbol id="icon-ticket-form" viewBox="0 0 32 32"><path d="m18 10 4 4-8 8-4-4zm13.298-.703L29.001 7l-1 1a2.829 2.829 0 1 1-4-4.001l1-1L22.704.702a2.415 2.415 0 0 0-3.405 0L.704 19.297a2.415 2.415 0 0 0 0 3.405l2.297 2.297L4 24a2.828 2.828 0 1 1 4 3.999l-1 1 2.297 2.297a2.415 2.415 0 0 0 3.405 0l18.595-18.595a2.417 2.417 0 0 0 0-3.406zM14 26l-8-8L18 6l8 8-12 12z"/></symbol><symbol id="icon-star" viewBox="0 0 32 32"><path d="m32 12.408-11.056-1.607L16 .783l-4.944 10.018L0 12.408l8 7.798-1.889 11.011L16 26.018l9.889 5.199L24 20.206l8-7.798z"/></symbol><symbol id="email" viewBox="0 0 32 32"><path d="M26.667 5.333H5.334A2.662 2.662 0 0 0 2.682 8l-.014 16c0 1.467 1.2 2.667 2.667 2.667h21.333c1.467 0 2.667-1.2 2.667-2.667V8c0-1.467-1.2-2.667-2.667-2.667zm-.534 5.668-9.426 5.892a1.343 1.343 0 0 1-1.421-.004l.006.003L5.866 11A1.133 1.133 0 1 1 7.07 9.083l-.004-.003 8.933 5.586 8.933-5.588a1.132 1.132 0 1 1 1.204 1.916l-.005.003z"/></symbol><symbol id="person" viewBox="0 0 32 32"><path d="M16 16a5.333 5.333 0 1 0 0-10.666A5.333 5.333 0 1 0 16 16zm0 2.667c-3.561 0-10.667 1.787-10.667 5.333v1.333c0 .732.599 1.333 1.333 1.333h18.667c.732 0 1.333-.601 1.333-1.333V24c0-3.547-7.108-5.333-10.667-5.333z"/></symbol><symbol id="phone" viewBox="0 0 32 32"><path d="m27.419 20.853-4.201-.48a3.28 3.28 0 0 0-2.713.941l-3.042 3.045c-4.718-2.435-8.467-6.185-10.835-10.764l-.065-.139L9.624 10.4a3.281 3.281 0 0 0 .94-2.729l.002.016-.48-4.169A3.314 3.314 0 0 0 6.799.592H3.934C2.064.59.51 2.144.624 4.014 1.502 18.14 12.8 29.42 26.91 30.297c1.867.114 3.424-1.44 3.424-3.31V24.11a3.279 3.279 0 0 0-2.897-3.256l-.015-.001z"/></symbol><symbol id="close" viewBox="0 0 32 32"><path d="m26.667 7.303-1.97-1.97-7.808 7.808-7.808-7.808-1.97 1.97 7.808 7.808-7.808 7.808 1.97 1.97 7.808-7.808 7.808 7.808 1.97-1.97-7.808-7.808 7.808-7.808z"/></symbol><symbol id="check" viewBox="0 0 16 15" fill="none"><rect width="16" height="15" rx="2" fill="#4c00fe"/><path d="m3.957 7.752-.069-.066-.069.065-.888.842-.076.072.076.073 3.496 3.334.069.066.069-.066 7.504-7.158.076-.073-.076-.072-.882-.841-.069-.066-.069.066-6.553 6.246-2.539-2.422Z" fill="#fff" stroke="#fff" stroke-width=".2"/></symbol><symbol id="uncheck" viewBox="0 0 16 15"><path d="M14.222 1.667v11.666H1.778V1.667h12.444Zm0-1.667H1.778C.8 0 0 .75 0 1.667v11.666C0 14.25.8 15 1.778 15h12.444C15.2 15 16 14.25 16 13.333V1.667C16 .75 15.2 0 14.222 0Z" fill="#212121"/></symbol><symbol id="icon-logo-name" viewBox="0 0 62 32"><path d="M19.119 23.909c-.575-1.648-1.759-2.472-3.552-2.472h-.566V31.6h.566c1.385 0 2.408-.563 3.068-1.688.556-.96.834-2.183.834-3.666-.001-.883-.118-1.662-.35-2.337zM9.412 24.031c.576 1.648 1.76 2.471 3.551 2.471h.566V16.339h-.566c-1.385 0-2.408.563-3.068 1.688-.554.96-.831 2.182-.832 3.666 0 .882.116 1.661.348 2.337zM0 .108h7.526V2.8H2.702v1.346H6.71V6.7H2.702v1.361h4.824v2.692H0V.109zM11.31.096h9.738L16.179 10.97 11.31.096zm4.869 9.527L20.202.661h-8.03l4.008 8.962zM24.937.108h7.526V2.8h-4.824v1.346h4.008V6.7h-4.008v1.361h4.824v2.692h-7.526V.109zM37.094 10.737V.095h.579l7.214 7.234V.095h.549v10.644l-8.342-.003zM53.318 10.753V2.8h-3.904V.108h8.342V2.8h-3.904v7.953h-.534zM4.438 18.461c.653 0 1.173.102 1.559.306.443.223.816.572 1.074 1.005s.39.934.381 1.442c.003.49-.131.97-.386 1.384-.259.424-.623.77-1.054 1.002a2.94 2.94 0 0 1 1.351 1.009c.359.459.553 1.032.549 1.621a2.816 2.816 0 0 1-.393 1.46 2.919 2.919 0 0 1-1.046 1.048 2.703 2.703 0 0 1-.727.275c-.267.061-.623.092-1.069.092H.105V18.461h4.334zM21.842 28.333c-.777-.698-1.16-1.746-1.15-3.143h2.419c-.01.581.158 1.025.505 1.331s.831.459 1.455.459c.515 0 .92-.087 1.217-.26s.445-.438.445-.795c0-.296-.151-.51-.453-.642a4.165 4.165 0 0 0-.898-.283l-.549-.102a11.623 11.623 0 0 1-1.974-.561 3.44 3.44 0 0 1-1.395-.994c-.376-.449-.564-1.04-.564-1.774s.188-1.359.564-1.873c.376-.515.878-.9 1.507-1.155a5.409 5.409 0 0 1 2.056-.382c.901 0 1.68.173 2.338.52s1.175.872 1.551 1.575c.174.297.291.627.341.971.039.302.059.606.059.91h-2.42c0-.551-.143-.956-.43-1.216s-.732-.39-1.336-.39c-.485 0-.861.087-1.128.26s-.401.408-.401.703c0 .326.178.566.534.719.438.178.89.316 1.351.413.891.184 1.586.359 2.086.528.504.171.953.48 1.299.895.366.428.549 1.03.549 1.805 0 .734-.198 1.366-.594 1.896s-.918.935-1.566 1.216a5.24 5.24 0 0 1-2.1.421c-1.435-.002-2.541-.352-3.318-1.05zM35.506 29.105v-7.953h-3.904V18.46h8.342v2.692H36.04v7.953h-.534zM42.749 18.461h7.526v2.692h-4.824v1.346h4.008v2.554h-4.008v1.361h4.824v2.692h-7.526V18.462zM61.422 29.105h-7.941V18.461h4.023c.861 0 1.563.158 2.108.474.52.291.951.725 1.247 1.254.298.535.452 1.142.445 1.759a3.433 3.433 0 0 1-.713 2.133 3.345 3.345 0 0 1-1.796 1.246l2.628 3.777zm-7.392-9.711v5.49h3.815l-3.815-5.49zm0 9.145h6.353l-2.167-3.105-.46.015H54.03v3.089zm.386-9.513 4.037 5.811a2.83 2.83 0 0 0 1.648-1.025c.428-.521.66-1.183.653-1.866a2.983 2.983 0 0 0-.401-1.529 2.656 2.656 0 0 0-1.128-1.055c-.435-.224-1.004-.336-1.707-.336h-3.102z"/></symbol><symbol id="icon-lock" viewBox="0 0 32 32"><path d="M18.5 14H18V8c0-3.308-2.692-6-6-6H8C4.692 2 2 4.692 2 8v6h-.5c-.825 0-1.5.675-1.5 1.5v15c0 .825.675 1.5 1.5 1.5h17c.825 0 1.5-.675 1.5-1.5v-15c0-.825-.675-1.5-1.5-1.5zM6 8c0-1.103.897-2 2-2h4c1.103 0 2 .897 2 2v6H6V8z"/></symbol><symbol id="icon-bin" viewBox="0 0 32 32"><path d="M4 10v20c0 1.1.9 2 2 2h18c1.1 0 2-.9 2-2V10H4zm6 18H8V14h2v14zm4 0h-2V14h2v14zm4 0h-2V14h2v14zm4 0h-2V14h2v14zM26.5 4H20V1.5c0-.825-.675-1.5-1.5-1.5h-7c-.825 0-1.5.675-1.5 1.5V4H3.5C2.675 4 2 4.675 2 5.5V8h26V5.5c0-.825-.675-1.5-1.5-1.5zM18 4h-6V2.025h6V4z"/></symbol><symbol id="cancel-circle" viewBox="0 0 32 32"><path d="M16 0C7.163 0 0 7.163 0 16s7.163 16 16 16 16-7.163 16-16S24.837 0 16 0zm0 29C8.82 29 3 23.18 3 16S8.82 3 16 3s13 5.82 13 13-5.82 13-13 13z"/><path d="m21 8-5 5-5-5-3 3 5 5-5 5 3 3 5-5 5 5 3-3-5-5 5-5z"/></symbol></defs></svg>