<svg fill="#F25081" xmlns="http://www.w3.org/2000/svg"  viewBox="0 0 64 64" width="64px" height="64px"><path d="M 10.957031 2.0136719 C 8.9014431 2.0575446 7 3.679662 7 5.9257812 L 7 58.074219 C 7 61.069044 10.380661 62.953348 13 61.46875 L 27.835938 53.060547 A 1.0001 1.0001 0 0 0 28.054688 52.935547 L 59.003906 35.394531 C 61.608901 33.918324 61.608901 30.081676 59.003906 28.605469 L 55.457031 26.595703 C 53.213172 16.538386 44.225883 9 33.5 9 C 31.030075 9 28.654479 9.4065689 26.429688 10.144531 L 13 2.53125 C 12.345165 2.1601006 11.642227 1.9990476 10.957031 2.0136719 z M 10.960938 3.9882812 C 11.308094 3.9878796 11.669006 4.0761338 12.013672 4.2714844 L 24.041016 11.089844 C 16.346843 14.66833 11 22.467156 11 31.5 C 11 40.923739 16.811015 48.998475 25.050781 52.339844 L 12.013672 59.728516 C 10.63501 60.509918 9 59.585393 9 58.074219 L 9 5.9257812 C 9 4.7924006 9.9194679 3.9894861 10.960938 3.9882812 z M 33.5 11 C 44.829141 11 54 20.170859 54 31.5 C 54 33.143635 53.797291 34.732771 53.431641 36.253906 L 47.066406 39.861328 C 47.43448 39.263871 47.779334 38.646416 48.072266 37.988281 C 51.644757 29.961899 48.014746 20.50328 39.988281 16.929688 C 39.177337 16.567964 38.351052 16.281928 37.519531 16.064453 A 1.0001 1.0001 0 0 0 37.222656 16.027344 A 1.0001 1.0001 0 0 0 37.013672 17.998047 C 37.742151 18.188572 38.464773 18.439583 39.173828 18.755859 C 46.209366 21.888267 49.375649 30.13821 46.244141 37.173828 C 43.112774 44.209128 34.861723 47.376554 27.826172 44.244141 C 24.236789 42.645641 21.660172 39.717678 20.40625 36.292969 A 1.0003679 1.0003679 0 0 0 18.527344 36.980469 C 19.959422 40.89176 22.917102 44.246812 27.011719 46.070312 C 29.190394 47.040316 31.473132 47.462972 33.716797 47.427734 L 27.34375 51.039062 C 19.034278 48.427741 13 40.681353 13 31.5 C 13 20.170859 22.170859 11 33.5 11 z M 33.269531 14.541016 A 1.0001 1.0001 0 0 0 32.298828 15.568359 L 32.326172 17.568359 A 1.0001073 1.0001073 0 0 0 34.326172 17.539062 L 34.298828 15.541016 A 1.0001 1.0001 0 0 0 33.269531 14.541016 z M 28.146484 15.460938 A 1.0001 1.0001 0 0 0 27.261719 16.806641 L 27.925781 18.693359 A 1.0004105 1.0004105 0 1 0 29.8125 18.027344 L 29.146484 16.140625 A 1.0001 1.0001 0 0 0 28.246094 15.460938 A 1.0001 1.0001 0 0 0 28.146484 15.460938 z M 23.679688 17.951172 A 1.0001 1.0001 0 0 0 22.878906 19.578125 L 24.111328 21.154297 A 1.0003977 1.0003977 0 1 0 25.6875 19.921875 L 24.455078 18.345703 A 1.0001 1.0001 0 0 0 23.679688 17.951172 z M 20.142578 21.763672 A 1.0001 1.0001 0 0 0 19.615234 23.609375 L 21.289062 24.703125 A 1.0001 1.0001 0 1 0 22.382812 23.029297 L 20.708984 21.935547 A 1.0001 1.0001 0 0 0 20.142578 21.763672 z M 34 25 L 34 28 L 34 32.349609 C 33.544 32.131609 33.039 32 32.5 32 C 30.567 32 29 33.567 29 35.5 C 29 37.433 30.567 39 32.5 39 C 34.389 39 35.918328 37.499953 35.986328 35.626953 L 36 35.625 L 36 28 L 39 28 L 39 25 L 36 25 L 34 25 z M 18.015625 26.5 A 1.0001 1.0001 0 0 0 17.810547 28.470703 L 19.746094 28.972656 A 1.0001 1.0001 0 1 0 20.248047 27.037109 L 18.3125 26.535156 A 1.0001 1.0001 0 0 0 18.015625 26.5 z M 55.873047 29.130859 L 58.017578 30.345703 C 59.386583 31.121496 59.386583 32.878504 58.017578 33.654297 L 55.724609 34.955078 C 55.900011 33.828615 56 32.677521 56 31.5 C 56 30.700045 55.954799 29.909443 55.873047 29.130859 z M 19.587891 31.511719 A 1.0001 1.0001 0 0 0 19.517578 31.515625 L 17.523438 31.664062 A 1.0001 1.0001 0 1 0 17.671875 33.658203 L 19.667969 33.509766 A 1.0001 1.0001 0 0 0 19.587891 31.511719 z"/></svg>