<svg aria-hidden="true" style="position: absolute; width: 0; height: 0; overflow: hidden;" version="1.1"
    xmlns="http://www.w3.org/2000/svg" xmlns:xlink="http://www.w3.org/1999/xlink">
    <defs>
        <symbol id="icon-close" viewBox="0 0 32 32">
            <path
                d="M1.646 32c-0.422 0-0.843-0.16-1.163-0.483-0.643-0.643-0.643-1.685 0-2.328l28.707-28.707c0.643-0.643 1.685-0.643 2.328 0s0.643 1.685 0 2.329l-28.707 28.706c-0.323 0.321-0.744 0.483-1.165 0.483z">
            </path>
            <path
                d="M30.355 32c-0.421 0-0.843-0.16-1.163-0.483l-28.709-28.706c-0.643-0.643-0.643-1.686 0-2.329s1.685-0.643 2.329 0l28.707 28.707c0.643 0.643 0.643 1.685 0 2.328-0.323 0.321-0.744 0.483-1.163 0.483z">
            </path>
        </symbol>
        <symbol id="icon-triangel" viewBox="0 0 52 32">
            <path fill="#939393" style="fill: var(--color2, #939393)" d="M26 32l-25.981-30h51.962l-25.981 30z"></path>
        </symbol>
        <symbol id="icon-location" viewBox="0 0 22 32">
            <path fill="#fff" style="fill: var(--color3, #fff)"
                d="M11.2 0c-6.176 0-11.2 4.99-11.2 11.123 0 7.709 11.211 20.877 11.211 20.877s11.189-13.547 11.189-20.877c0-6.133-5.024-11.123-11.2-11.123zM14.579 14.38c-0.932 0.925-2.155 1.388-3.379 1.388s-2.448-0.463-3.379-1.388c-1.863-1.85-1.863-4.861 0-6.712 0.902-0.896 2.103-1.39 3.379-1.39s2.477 0.494 3.379 1.39c1.863 1.851 1.863 4.862 0 6.712z">
            </path>
        </symbol>
        <symbol id="icon-search" viewBox="0 0 32 32">
            <path
                d="M4.024 4.024c2.595-2.595 6.045-4.024 9.715-4.024s7.12 1.429 9.715 4.024c2.595 2.595 4.024 6.045 4.024 9.715 0 3.355-1.195 6.526-3.383 9.029l7.63 7.63c0.366 0.366 0.366 0.961 0 1.327-0.183 0.183-0.423 0.275-0.664 0.275s-0.48-0.092-0.663-0.275l-7.63-7.63c-2.502 2.188-5.673 3.383-9.029 3.383-3.67 0-7.12-1.429-9.715-4.024s-4.024-6.045-4.024-9.715 1.429-7.12 4.024-9.715zM5.351 22.127c4.625 4.625 12.15 4.625 16.775 0s4.625-12.15 0-16.775c-2.313-2.313-5.35-3.469-8.388-3.469s-6.076 1.157-8.388 3.469c-4.625 4.625-4.625 12.15 0 16.775z">
            </path>
        </symbol>
        <symbol id="icon-ticket" viewBox="0 0 44 32">
            <path d="M4.91 1.27h-4.91v29.46h4.91v-29.46z"></path>
            <path d="M17.26 1.27h-4.91v29.46h4.91v-29.46z"></path>
            <path d="M24.699 1.27h-4.91v29.46h4.91v-29.46z"></path>
            <path d="M44.19 1.27h-7.291v29.46h7.291v-29.46z"></path>
            <path d="M9.82 1.27h-2.381v29.46h2.381v-29.46z"></path>
            <path d="M29.46 1.27h-2.381v29.46h2.381v-29.46z"></path>
            <path d="M34.37 1.27h-2.381v29.46h2.381v-29.46z"></path>
        </symbol>
        <symbol id="icon-ticket-form" viewBox="0 0 32 32">
            <path d="M18 10l4 4-8 8-4-4zM31.298 9.297l-2.297-2.297-1 1c-0.512 0.512-1.219 0.828-2 0.828-1.562 0-2.829-1.266-2.829-2.828 0-0.781 0.317-1.489 0.829-2.001l1-1-2.297-2.297c-0.936-0.936-2.469-0.936-3.405 0l-18.595 18.595c-0.936 0.936-0.936 2.469 0 3.405l2.297 2.297 0.999-0.999c0.512-0.513 1.22-0.83 2.001-0.83 1.562 0 2.828 1.266 2.828 2.828 0 0.781-0.317 1.489-0.829 2.001l-1 1 2.297 2.297c0.936 0.936 2.469 0.936 3.405 0l18.595-18.595c0.936-0.937 0.936-2.469 0-3.406zM14 26l-8-8 12-12 8 8-12 12z"></path>
        </symbol>
        <symbol id="icon-star" viewBox="0 0 32 32">
            <path d="M32 12.408l-11.056-1.607-4.944-10.018-4.944 10.018-11.056 1.607 8 7.798-1.889 11.011 9.889-5.199 9.889 5.199-1.889-11.011 8-7.798z"></path>
        </symbol>
        <symbol id="email" viewBox="0 0 32 32">
      <path d="M26.667 5.333H5.334A2.662 2.662 0 0 0 2.682 8l-.014 16c0 1.467 1.2 2.667 2.667 2.667h21.333c1.467 0 2.667-1.2 2.667-2.667V8c0-1.467-1.2-2.667-2.667-2.667zm-.534 5.668-9.426 5.892a1.343 1.343 0 0 1-1.421-.004l.006.003L5.866 11A1.133 1.133 0 1 1 7.07 9.083l-.004-.003 8.933 5.586 8.933-5.588a1.132 1.132 0 1 1 1.204 1.916l-.005.003z"/>
    </symbol>
    <symbol id="person" viewBox="0 0 32 32">
      <path d="M16 16a5.333 5.333 0 1 0 0-10.666A5.333 5.333 0 1 0 16 16zm0 2.667c-3.561 0-10.667 1.787-10.667 5.333v1.333c0 .732.599 1.333 1.333 1.333h18.667c.732 0 1.333-.601 1.333-1.333V24c0-3.547-7.108-5.333-10.667-5.333z"/>
    </symbol>
    <symbol id="phone" viewBox="0 0 32 32">
      <path d="m27.419 20.853-4.201-.48a3.28 3.28 0 0 0-2.713.941l-3.042 3.045c-4.718-2.435-8.467-6.185-10.835-10.764l-.065-.139L9.624 10.4a3.281 3.281 0 0 0 .94-2.729l.002.016-.48-4.169A3.314 3.314 0 0 0 6.799.592H3.934C2.064.59.51 2.144.624 4.014 1.502 18.14 12.8 29.42 26.91 30.297c1.867.114 3.424-1.44 3.424-3.31V24.11a3.279 3.279 0 0 0-2.897-3.256l-.015-.001z"/>
    </symbol>
    <symbol id="close" viewBox="0 0 32 32">
      <path d="M26.667 7.303l-1.97-1.97-7.808 7.808-7.808-7.808-1.97 1.97 7.808 7.808-7.808 7.808 1.97 1.97 7.808-7.808 7.808 7.808 1.97-1.97-7.808-7.808 7.808-7.808z"></path>
    </symbol>
    <symbol id="check" viewBox="0 0 16 15" fill="none">
      <rect width="16" height="15" rx="2" fill="#4c00fe"/>
      <path d="m3.957 7.752-.069-.066-.069.065-.888.842-.076.072.076.073 3.496 3.334.069.066.069-.066 7.504-7.158.076-.073-.076-.072-.882-.841-.069-.066-.069.066-6.553 6.246-2.539-2.422Z" fill="#fff" stroke="#fff" stroke-width=".2"/>
    </symbol>
    <symbol id="uncheck" viewBox="0 0 16 15">
      <path d="M14.222 1.667v11.666H1.778V1.667h12.444Zm0-1.667H1.778C.8 0 0 .75 0 1.667v11.666C0 14.25.8 15 1.778 15h12.444C15.2 15 16 14.25 16 13.333V1.667C16 .75 15.2 0 14.222 0Z" fill="#212121"/>
    </symbol>
    <symbol id="icon-logo-name" viewBox="0 0 62 32">
<path d="M19.119 23.909c-0.575-1.648-1.759-2.472-3.552-2.472h-0.566v10.163h0.566c1.385 0 2.408-0.563 3.068-1.688 0.556-0.96 0.834-2.183 0.834-3.666-0.001-0.883-0.118-1.662-0.35-2.337z"></path>
<path d="M9.412 24.031c0.576 1.648 1.76 2.471 3.551 2.471h0.566v-10.163h-0.566c-1.385 0-2.408 0.563-3.068 1.688-0.554 0.96-0.831 2.182-0.832 3.666 0 0.882 0.116 1.661 0.348 2.337z"></path>
<path d="M-0 0.108h7.526v2.692h-4.824v1.346h4.008v2.554h-4.008v1.361h4.824v2.692h-7.526v-10.644z"></path>
<path d="M11.31 0.096h9.738l-4.869 10.874-4.869-10.874zM16.179 9.623l4.023-8.962h-8.030l4.008 8.962z"></path>
<path d="M24.937 0.108h7.526v2.692h-4.824v1.346h4.008v2.554h-4.008v1.361h4.824v2.692h-7.526v-10.644z"></path>
<path d="M37.094 10.737v-10.642h0.579l7.214 7.234v-7.234h0.549v10.644l-8.342-0.003z"></path>
<path d="M53.318 10.753v-7.953h-3.904v-2.692h8.342v2.692h-3.904v7.953h-0.534z"></path>
<path d="M4.438 18.461c0.653 0 1.173 0.102 1.559 0.306 0.443 0.223 0.816 0.572 1.074 1.005s0.39 0.934 0.381 1.442c0.003 0.49-0.131 0.97-0.386 1.384-0.259 0.424-0.623 0.77-1.054 1.002 0.536 0.195 1.005 0.545 1.351 1.009 0.359 0.459 0.553 1.032 0.549 1.621 0.004 0.515-0.132 1.021-0.393 1.46-0.255 0.436-0.616 0.797-1.046 1.048-0.229 0.127-0.474 0.219-0.727 0.275-0.267 0.061-0.623 0.092-1.069 0.092h-4.572v-10.644h4.334z"></path>
<path d="M21.842 28.333c-0.777-0.698-1.16-1.746-1.15-3.143h2.419c-0.010 0.581 0.158 1.025 0.505 1.331s0.831 0.459 1.455 0.459c0.515 0 0.92-0.087 1.217-0.26s0.445-0.438 0.445-0.795c0-0.296-0.151-0.51-0.453-0.642-0.288-0.128-0.589-0.223-0.898-0.283-0.297-0.056-0.48-0.090-0.549-0.102-0.672-0.128-1.333-0.316-1.974-0.561-0.538-0.206-1.018-0.548-1.395-0.994-0.376-0.449-0.564-1.040-0.564-1.774s0.188-1.359 0.564-1.873c0.376-0.515 0.878-0.9 1.507-1.155 0.656-0.26 1.353-0.39 2.056-0.382 0.901 0 1.68 0.173 2.338 0.52s1.175 0.872 1.551 1.575c0.174 0.297 0.291 0.627 0.341 0.971 0.039 0.302 0.059 0.606 0.059 0.91h-2.42c0-0.551-0.143-0.956-0.43-1.216s-0.732-0.39-1.336-0.39c-0.485 0-0.861 0.087-1.128 0.26s-0.401 0.408-0.401 0.703c0 0.326 0.178 0.566 0.534 0.719 0.438 0.178 0.89 0.316 1.351 0.413 0.891 0.184 1.586 0.359 2.086 0.528 0.504 0.171 0.953 0.48 1.299 0.895 0.366 0.428 0.549 1.030 0.549 1.805 0 0.734-0.198 1.366-0.594 1.896s-0.918 0.935-1.566 1.216c-0.666 0.284-1.38 0.427-2.1 0.421-1.435-0.002-2.541-0.352-3.318-1.050z"></path>
<path d="M35.506 29.105v-7.953h-3.904v-2.692h8.342v2.692h-3.904v7.953h-0.534z"></path>
<path d="M42.749 18.461h7.526v2.692h-4.824v1.346h4.008v2.554h-4.008v1.361h4.824v2.692h-7.526v-10.644z"></path>
<path d="M61.422 29.105h-7.941v-10.644h4.023c0.861 0 1.563 0.158 2.108 0.474 0.52 0.291 0.951 0.725 1.247 1.254 0.298 0.535 0.452 1.142 0.445 1.759 0.007 0.774-0.244 1.528-0.713 2.133-0.448 0.609-1.080 1.047-1.796 1.246l2.628 3.777zM54.030 19.394v5.49h3.815l-3.815-5.49zM54.030 28.539h6.353l-2.167-3.105-0.46 0.015h-3.726v3.089zM54.416 19.026l4.037 5.811c0.648-0.134 1.231-0.496 1.648-1.025 0.428-0.521 0.66-1.183 0.653-1.866 0.006-0.538-0.133-1.067-0.401-1.529-0.267-0.459-0.659-0.826-1.128-1.055-0.435-0.224-1.004-0.336-1.707-0.336h-3.102z"></path>
</symbol>
<symbol id="icon-lock" viewBox="0 0 32 32">
<path d="M18.5 14h-0.5v-6c0-3.308-2.692-6-6-6h-4c-3.308 0-6 2.692-6 6v6h-0.5c-0.825 0-1.5 0.675-1.5 1.5v15c0 0.825 0.675 1.5 1.5 1.5h17c0.825 0 1.5-0.675 1.5-1.5v-15c0-0.825-0.675-1.5-1.5-1.5zM6 8c0-1.103 0.897-2 2-2h4c1.103 0 2 0.897 2 2v6h-8v-6z"></path>
</symbol>
<symbol id="icon-bin" viewBox="0 0 32 32">
<path d="M4 10v20c0 1.1 0.9 2 2 2h18c1.1 0 2-0.9 2-2v-20h-22zM10 28h-2v-14h2v14zM14 28h-2v-14h2v14zM18 28h-2v-14h2v14zM22 28h-2v-14h2v14z"></path>
<path d="M26.5 4h-6.5v-2.5c0-0.825-0.675-1.5-1.5-1.5h-7c-0.825 0-1.5 0.675-1.5 1.5v2.5h-6.5c-0.825 0-1.5 0.675-1.5 1.5v2.5h26v-2.5c0-0.825-0.675-1.5-1.5-1.5zM18 4h-6v-1.975h6v1.975z"></path>
</symbol>
        <symbol id="cancel-circle" viewBox="0 0 32 32">
            <path d="M16 0c-8.837 0-16 7.163-16 16s7.163 16 16 16 16-7.163 16-16-7.163-16-16-16zM16 29c-7.18 0-13-5.82-13-13s5.82-13 13-13 13 5.82 13 13-5.82 13-13 13z"></path>
            <path d="M21 8l-5 5-5-5-3 3 5 5-5 5 3 3 5-5 5 5 3-3-5-5 5-5z"></path>
        </symbol>

    </defs>
</svg>